<svg xmlns="http://www.w3.org/2000/svg" viewBox="0 0 1600 900" role="img" aria-label="Escena generada de verano Frigo con helado en playa">
  <defs>
    <linearGradient id="sky" x1="0" x2="1" y1="0" y2="1">
      <stop offset="0" stop-color="#f8d9a6"/>
      <stop offset=".45" stop-color="#d78361"/>
      <stop offset="1" stop-color="#3b1b16"/>
    </linearGradient>
    <linearGradient id="sea" x1="0" x2="1">
      <stop offset="0" stop-color="#8bd5e8"/>
      <stop offset=".7" stop-color="#2e7f94"/>
      <stop offset="1" stop-color="#16404a"/>
    </linearGradient>
    <filter id="soft" x="-20%" y="-20%" width="140%" height="140%">
      <feGaussianBlur stdDeviation="16"/>
    </filter>
  </defs>
  <rect width="1600" height="900" fill="url(#sky)"/>
  <circle cx="1210" cy="135" r="112" fill="#fff0ca" opacity=".8" filter="url(#soft)"/>
  <path d="M0 420 C260 360 430 450 690 392 C940 336 1180 378 1600 308 L1600 900 L0 900Z" fill="url(#sea)" opacity=".72"/>
  <path d="M0 600 C280 530 520 610 760 560 C1010 508 1250 545 1600 478 L1600 900 L0 900Z" fill="#e0ad76"/>
  <path d="M1050 170 L1430 170 L1390 220 L1090 220Z" fill="#bc7155"/>
  <g opacity=".92">
    <path d="M1184 220 L1292 220 L1264 745 L1144 745Z" fill="#f5e7d2"/>
    <path d="M1232 214 L1322 214 L1315 745 L1214 745Z" fill="#ffffff"/>
    <path d="M1158 220 L1250 220 L1224 745 L1122 745Z" fill="#d39b61"/>
    <path d="M1130 342 C1164 294 1254 284 1297 337 C1334 382 1312 450 1244 464 C1175 478 1090 424 1130 342Z" fill="#fff6df"/>
    <path d="M1164 360 C1190 330 1250 326 1276 360 C1296 386 1272 430 1224 430 C1176 430 1136 396 1164 360Z" fill="#d84a37"/>
    <path d="M1186 344 C1212 319 1266 326 1274 352 C1250 346 1224 366 1196 362Z" fill="#ffffff" opacity=".82"/>
  </g>
  <g fill="#000d10" opacity=".18">
    <circle cx="310" cy="640" r="42"/>
    <rect x="286" y="680" width="50" height="118" rx="25"/>
    <circle cx="400" cy="662" r="34"/>
    <rect x="380" y="696" width="42" height="100" rx="21"/>
    <circle cx="485" cy="642" r="38"/>
    <rect x="462" y="682" width="48" height="120" rx="24"/>
  </g>
  <g opacity=".18" fill="#ffffff">
    <text x="92" y="160" font-family="Arial, sans-serif" font-size="104" font-weight="700">FRIGO 100</text>
    <text x="96" y="230" font-family="Arial, sans-serif" font-size="38" font-weight="700">verano, playa y memoria</text>
  </g>
</svg>
