<svg xmlns="http://www.w3.org/2000/svg" viewBox="0 0 1600 900" role="img" aria-label="Escena generada de ruleta de premios y mecanicas Frigo">
  <defs>
    <radialGradient id="wheel" cx=".5" cy=".5" r=".55">
      <stop offset="0" stop-color="#ffffff"/>
      <stop offset=".32" stop-color="#f7d3a7"/>
      <stop offset=".7" stop-color="#bc7155"/>
      <stop offset="1" stop-color="#5d241b"/>
    </radialGradient>
    <linearGradient id="bg" x1="0" x2="1" y1="0" y2="1">
      <stop offset="0" stop-color="#f7f2ea"/>
      <stop offset=".48" stop-color="#bc7155"/>
      <stop offset="1" stop-color="#23110d"/>
    </linearGradient>
  </defs>
  <rect width="1600" height="900" fill="url(#bg)"/>
  <g transform="translate(1035 438)">
    <circle r="315" fill="url(#wheel)" opacity=".86"/>
    <path d="M0 0 L0 -315 A315 315 0 0 1 273 -158Z" fill="#d94132" opacity=".88"/>
    <path d="M0 0 L273 -158 A315 315 0 0 1 273 158Z" fill="#fff4da" opacity=".88"/>
    <path d="M0 0 L273 158 A315 315 0 0 1 0 315Z" fill="#2d9fd0" opacity=".82"/>
    <path d="M0 0 L0 315 A315 315 0 0 1 -273 158Z" fill="#bc7155" opacity=".88"/>
    <path d="M0 0 L-273 158 A315 315 0 0 1 -273 -158Z" fill="#000d10" opacity=".82"/>
    <path d="M0 0 L-273 -158 A315 315 0 0 1 0 -315Z" fill="#f2c063" opacity=".88"/>
    <circle r="92" fill="#fffaf0"/>
    <circle r="42" fill="#bc7155"/>
    <path d="M0 -380 L42 -305 L-42 -305Z" fill="#ffffff"/>
  </g>
  <g opacity=".28" fill="#ffffff">
    <rect x="160" y="168" width="260" height="84" rx="42"/>
    <rect x="210" y="312" width="360" height="84" rx="42"/>
    <rect x="130" y="456" width="300" height="84" rx="42"/>
    <rect x="250" y="600" width="390" height="84" rx="42"/>
  </g>
  <g opacity=".18" fill="#ffffff" font-family="Arial, sans-serif" font-weight="700">
    <text x="92" y="160" font-size="96">JUEGO</text>
    <text x="92" y="230" font-size="42">instant win, niveles y retos</text>
  </g>
</svg>
